<svg version="1.1" id="Layer_1" x="0px" y="0px" viewBox="0 0 113.53 96.07" style="enable-background:new 0 0 113.53 96.07" xmlns="http://www.w3.org/2000/svg">
  <defs></defs>
  <style type="text/css">
    .st0{fill-rule:evenodd;clip-rule:evenodd;fill:#3b82f6;}
    .st1{fill:#3c3723;}
  </style>
  <g>
    <path class="st1" d="M 3.49 7.06 C 1.61 7.06 0 5.45 0 3.49 C 0 1.61 1.61 0 3.49 0 L 12.61 0 C 12.7 0 12.88 0 12.97 0 C 16.19 0.09 19.05 0.71 21.46 2.23 C 24.14 3.93 26.11 6.52 27.18 10.36 C 27.18 10.45 27.18 10.54 27.27 10.63 L 28.16 14.2 L 60.17 14.2 C 57.165 21.357 56.99 30.338 58.829 37.905 C 61.396 48.465 69.852 55.787 80.42 58.17 L 39.95 58.17 C 41.2 62.82 42.45 65.32 44.15 66.48 C 46.21 67.82 49.78 67.91 55.77 67.82 L 55.86 67.82 L 96.26 67.82 C 98.23 67.82 99.74 69.43 99.74 71.31 C 99.74 73.27 98.13 74.79 96.26 74.79 L 55.86 74.79 C 48.44 74.88 43.88 74.7 40.22 72.29 C 36.47 69.79 34.5 65.5 32.53 57.72 L 20.56 12.42 C 20.56 12.33 20.56 12.33 20.47 12.24 C 19.93 10.27 19.04 8.93 17.79 8.22 C 16.54 7.42 14.84 7.06 12.87 7.06 C 12.78 7.06 12.69 7.06 12.6 7.06 L 3.49 7.06 Z M 85.79 78.91 C 90.53 78.91 94.37 82.75 94.37 87.49 C 94.37 92.23 90.53 96.07 85.79 96.07 C 81.05 96.07 77.21 92.23 77.21 87.49 C 77.22 82.76 81.06 78.91 85.79 78.91 Z M 48.17 78.91 C 52.91 78.91 56.75 82.75 56.75 87.49 C 56.75 92.23 52.91 96.07 48.17 96.07 C 43.43 96.07 39.59 92.23 39.59 87.49 C 39.59 82.76 43.43 78.91 48.17 78.91 Z"></path>
    <path class="st0" d="M 86.623 0 C 101.481 0 113.53 12.518 113.53 27.955 C 113.53 43.393 101.481 55.911 86.623 55.911 C 51.239 55.911 51.239 0 86.623 0 Z M 74.716 28.7 C 75.075 26.527 77.466 25.31 79.355 26.49 C 79.523 26.602 79.689 26.726 79.844 26.863 L 79.857 26.875 C 80.705 27.72 81.65 28.601 82.582 29.459 L 83.395 30.203 L 92.958 19.784 C 93.531 19.163 93.95 18.753 94.81 18.554 C 97.739 17.883 99.808 21.61 97.739 23.882 L 85.81 36.91 C 84.686 38.152 82.677 38.263 81.47 37.072 C 80.776 36.413 80.024 35.729 79.271 35.035 C 77.956 33.842 76.617 32.625 75.517 31.433 C 74.847 30.762 74.561 29.632 74.716 28.7 Z" style=""></path>
  </g>
</svg>
